<svg width="48" height="48" xmlns="http://www.w3.org/2000/svg"><g fill="#FFF" fill-rule="nonzero" opacity=".6"><path d="M40.5 16.978l3.5993-3.2.0137-.0114a12.0143 12.0143 0 0 0 3.7277-10.5173l-.1308-.9273A2.4228 2.4228 0 0 0 45.6713.2826l-.9203-.13a12.026 12.026 0 0 0-10.5356 3.7415l-3.2 3.5996-1.7294-.995a29.982 29.982 0 0 0-14.9597-3.974l-1.4882.0056a4.0186 4.0186 0 0 0-3.4584 2.0041l-.2803.487c-.2207.3832-.0896.873.2932 1.094l15.2736 8.8185-11.9354 13.5226-.914 1.1751a16.8625 16.8625 0 0 0-8.0856-2.0738l-1.2072-.0055a2.4403 2.4403 0 0 0-2.0754 1.2025l-.341.5837a.801.801 0 0 0-.0802.6086.7998.7998 0 0 0 .3738.487l7.776 4.4894c-.2204.4263-.4294.8538-.6197 1.293a3.2266 3.2266 0 0 0 .2737 3.023 3.2277 3.2277 0 0 0 2.6621 1.4586 3.2564 3.2564 0 0 0 1.2828-.2662.555.555 0 0 0 .0599-.0282c.4008-.1722.8138-.375 1.233-.5915l4.4895 7.776a.801.801 0 0 0 .4865.3766.8012.8012 0 0 0 .6103-.0791l.589-.3406h.0048a2.4444 2.4444 0 0 0 1.1962-2.0844l-.0054-1.1923a16.8637 16.8637 0 0 0-2.0798-8.0919l1.1583-.901 13.5333-11.9496 8.823 15.2756c.2216.3828.7113.5144 1.0945.2936l.4866-.2799a4.019 4.019 0 0 0 2.0041-3.46l.0047-1.4862a29.6998 29.6998 0 0 0-3.9723-14.9601l-.9923-1.731zM12.844 4.1336l1.4878-.0055A28.2768 28.2768 0 0 1 28.4851 7.888l1.4625.8412-4.212 4.9768-14.8383-8.5694a2.4165 2.4165 0 0 1 1.9466-1.0029zM2.528 29.1556l1.2024.0055a15.2706 15.2706 0 0 1 7.0965 1.7502l-.5034.6486c-.2913.368-.5676.7566-.837 1.156-.0802.1154-.1522.2332-.2285.351-.0987.153-.202.3007-.2975.4576l-7.0546-4.0702a.8113.8113 0 0 1 .622-.2986zm16.3042 15.114l.0059 1.1845a.8175.8175 0 0 1-.2999.6325l-4.0694-7.0545c.1554-.0947.3014-.1957.453-.2936.1193-.0798.2406-.153.3577-.2325.3887-.261.7664-.5296 1.1223-.8095l.0238-.0176.6577-.5116a15.2739 15.2739 0 0 1 1.7489 7.1023zm-.3374-10.2288l-1.65 1.2828c-.0039 0-.0093 0-.0133.007l-1.3982 1.0906a18.4991 18.4991 0 0 1-2.4516 1.6249 19.3386 19.3386 0 0 1-1.83.9124.571.571 0 0 0-.0524.0239 1.6113 1.6113 0 0 1-2.064-2.131 19.4278 19.4278 0 0 1 .9179-1.8437 18.4377 18.4377 0 0 1 1.6287-2.4626l1.0824-1.3888s0-.0086.0062-.0125l1.295-1.6676L35.4022 4.9717a10.4266 10.4266 0 0 1 7.6358-3.339c.4963 0 .992.0356 1.4832.1073l.9202.13a.8093.8093 0 0 1 .682.679l.1307.9266a10.4123 10.4123 0 0 1-3.2282 9.1076L18.4948 34.0408zm25.365 1.1098a2.4125 2.4125 0 0 1-1.0037 1.9447L34.2878 22.253l4.9784-4.208.8424 1.464a28.0975 28.0975 0 0 1 3.7558 14.1584l-.0047 1.4832z"/><path d="M38.7217 5.9769a2.405 2.405 0 0 1 2.926.37c.7762.7773.9277 1.9814.3672 2.9263a.8023.8023 0 0 0 .2803 1.0988c.3808.2259.8729.1006 1.0987-.2803.934-1.5744.6827-3.5817-.611-4.8773-1.2937-1.2953-3.3006-1.5497-4.8766-.6181a.8015.8015 0 0 0-.4008.6995.8017.8017 0 0 0 1.2162.6811z"/></g></svg>