<svg width="51" height="42" xmlns="http://www.w3.org/2000/svg"><g fill="#FFF" fill-rule="nonzero" opacity=".6"><path d="M40.043 12c-.5499 0-.9961.448-.9961 1s.4462 1 .996 1c.55 0 .9962-.448.9962-1s-.4463-1-.9961-1z"/><path d="M48.0117 8h-10.939l-3.1583-6.3413C33.4047.6356 32.3805 0 31.2414 0H19.7586c-1.1392 0-2.1634.6356-2.6729 1.6588L13.9274 8H11.953V7c0-1.6542-1.3405-3-2.9883-3H6.9727C5.3249 4 3.9844 5.3458 3.9844 7v1h-.9961C1.3405 8 0 9.3458 0 11v28c0 1.6542 1.3405 3 2.9883 3h45.0234C49.6595 42 51 40.6542 51 39V11c0-1.6542-1.3405-3-2.9883-3zM18.8675 2.5532c.17-.3412.5113-.5532.891-.5532h11.483c.3797 0 .7212.212.891.5532L34.8455 8H16.1546l2.713-5.4468zM5.9765 7c0-.5514.447-1 .9962-1h1.9921c.5493 0 .9961.4486.9961 1v1H5.9766V7zM1.9923 17.99h12.5957c-1.3238 2.0761-2.0371 4.5092-2.0371 7.01 0 2.501.7134 4.9243 2.037 7H1.9923V17.99zM25.5 14c5.9898 0 10.957 4.8719 10.957 11 0 6.1212-4.9602 11-10.957 11-6.0022 0-10.957-4.8842-10.957-11 0-6.1205 4.9595-11 10.957-11zm23.5078 25c0 .5514-.4468 1-.996 1H2.9882c-.5493 0-.9961-.4486-.9961-1v-5h14.167c2.434 2.5472 5.8121 4 9.3408 4 3.5293 0 6.9077-1.4532 9.3409-4h14.167v5zm0-7H36.4121c1.3238-2.0761 2.0371-4.4991 2.0371-7 0-2.5009-.7133-4.9239-2.037-7h12.5956v14zm0-16h-14.167c-2.4339-2.5472-5.812-4-9.3408-4-3.5292 0-6.9076 1.4532-9.3409 4H1.9921v-5c0-.5514.447-1 .9962-1h45.0234c.5493 0 .9961.4486.9961 1v5z"/><path d="M28.4883 4h-5.9766c-.5501 0-.996.4477-.996 1s.4459 1 .996 1h5.9766c.55 0 .996-.4477.996-1s-.446-1-.996-1zM25.5 16c-4.9432 0-8.9648 4.0374-8.9648 9s4.0216 9 8.9648 9 8.9648-4.0374 8.9648-9-4.0216-9-8.9648-9zm0 16c-3.8447 0-6.9727-3.1402-6.9727-7s3.128-7 6.9727-7c3.8447 0 6.9727 3.1402 6.9727 7s-3.128 7-6.9727 7z"/><path d="M25.5 20c-2.7462 0-4.9805 2.243-4.9805 5 0 .5523.446 1 .9961 1 .5502 0 .9961-.4477.9961-1 0-1.6542 1.3406-3 2.9883-3 .55 0 .996-.4477.996-1s-.446-1-.996-1zm20.5195-8h-1.9922c-.55 0-.996.4477-.996 1s.446 1 .996 1h1.9922c.55 0 .9961-.4477.9961-1s-.446-1-.996-1z"/></g></svg>