<svg width="51" height="25" xmlns="http://www.w3.org/2000/svg"><path d="M13.3256.9574A1.643 1.643 0 0 0 10.984.957L.485 11.5705c-.6466.6538-.6467 1.7138-.0002 2.3677l10.4535 10.5692c.3234.327.7471.4904 1.171.4904.4237 0 .8476-.1634 1.1708-.4902.6469-.6538.6469-1.7139.0002-2.3674l-9.2827-9.3857 9.328-9.4297c.6466-.6538.6466-1.7139 0-2.3674zm37.144 10.5692L40.0147.9569a1.643 1.643 0 0 0-2.3415.0002c-.6467.6538-.6467 1.7139.0002 2.3677l9.284 9.3857-9.3277 9.4292c-.6469.6538-.6469 1.7139-.0002 2.3674.3234.327.7471.4904 1.171.4904.4237 0 .8476-.1633 1.1708-.4901l10.499-10.6132a1.683 1.683 0 0 0 .485-1.184 1.686 1.686 0 0 0-.4855-1.1836zM34.4172.5138c-.7317-.5544-1.77-.403-2.3178.337L16.2045 22.3206c-.548.7402-.399 1.7895.3334 2.3433.2976.2255.6458.334.9909.334a1.6474 1.6474 0 0 0 1.3268-.671L34.7502 2.857c.5482-.7401.399-1.7892-.3331-2.3433z" fill="#FFF" fill-rule="nonzero" opacity=".6"/></svg>