<svg width="51" height="51" xmlns="http://www.w3.org/2000/svg"><path d="M43.0313 9.961c-.5499 0-.9961.4462-.9961.996 0 .5499.4462.9961.996.9961.5499 0 .9961-.4462.9961-.996 0-.55-.4462-.9962-.996-.9962zm-35.0626 0c-.5498 0-.996.4462-.996.996 0 .5499.4462.9961.996.9961.5499 0 .9961-.4462.9961-.996 0-.55-.4462-.9962-.996-.9962zM50.004 21.914h-1.1913c-.3724-2.869-1.272-5.6033-2.6839-8.1385-.2676-.4805-.8742-.6534-1.3549-.3857-.4806.2676-.6533.8743-.3857 1.3549 1.246 2.2375 2.0566 4.6446 2.4158 7.1694h-.7844c-.5501 0-.996.446-.996.996v3.9844c0 .5502.4459.9961.996.9961h3.9844c.5501 0 .9961-.446.9961-.996v-3.9844c0-.5502-.446-.9961-.996-.9961zm-.996 3.9844h-1.9923v-1.9921h1.9922v1.9921zM36.455 29.1478c-.0006-.0154-.001-.0309-.0023-.0463a.9962.9962 0 0 0-.0077-.0627c-.002-.0127-.0034-.0255-.0059-.0382a1.0246 1.0246 0 0 0-.0168-.0721c-.0024-.0091-.0043-.0182-.007-.0271a.9792.9792 0 0 0-.0308-.0876c-.0013-.003-.0022-.0064-.0035-.0095a.9832.9832 0 0 0-.0463-.0969l-9.9607-18.2281a.996.996 0 0 0-1.7482.0001l-9.9607 18.2281a.9832.9832 0 0 0-.0463.097c-.0013.003-.0022.0062-.0035.0094a.9792.9792 0 0 0-.0308.0876c-.0027.009-.0046.018-.007.027a.9602.9602 0 0 0-.0168.0722c-.0024.0126-.0039.0254-.0059.0382a.9962.9962 0 0 0-.0077.0627c-.0013.0154-.0018.0309-.0023.0463-.0005.0125-.002.0249-.002.0376 0 .0066.001.0129.001.0195a.9206.9206 0 0 0 .0025.0468.9633.9633 0 0 0 .0053.059 1.1722 1.1722 0 0 0 .0192.105c.0083.0347.0184.069.0303.1025.0022.0063.0036.0127.006.019l3.5923 9.5195a2.9978 2.9978 0 0 0-.7889.5667c-.5646.5646-.8754 1.315-.8754 2.1128 0 1.2985.8328 2.4058 1.9921 2.817v5.4506c0 .5501.446.9961.9961.9961h11.9532c.5501 0 .996-.446.996-.996v-5.449a2.9788 2.9788 0 0 0 1.1169-.7059c.5645-.5645.8753-1.3149.8753-2.1128 0-1.1727-.6792-2.1892-1.6647-2.6782l3.5928-9.5208c.0024-.0063.0038-.0127.006-.019a1.0084 1.0084 0 0 0 .0303-.1025 1.034 1.034 0 0 0 .0129-.0638c.0023-.0138.0046-.0274.0063-.0411a.9633.9633 0 0 0 .0053-.0591c.001-.0157.0021-.0312.0024-.0468.0001-.0065.001-.0129.001-.0195 0-.0127-.0015-.025-.002-.0377zM25.5 28.1895c.5492 0 .996.4468.996.996 0 .5493-.4468.9961-.996.9961s-.996-.4468-.996-.996c0-.5493.4468-.9961.996-.9961zm4.9805 20.8183h-9.961v-4.2832h9.961v4.2832zm1.7002-6.5674a.9892.9892 0 0 1-.7041.292H19.5234c-.5492 0-.996-.4468-.996-.996a.9891.9891 0 0 1 .2919-.7041.9894.9894 0 0 1 .7041-.292H31.47l.0066.0002h.0033c.5478.0017.993.4477.993.9958a.9896.9896 0 0 1-.2921.704zm-1.393-3.6924H20.2123l-3.2326-8.5664h2.5438c.5502 0 .9961-.446.9961-.996 0-.5502-.446-.9961-.996-.9961h-2.305l7.2854-13.3324v11.5115c-1.1593.4112-1.9922 1.5183-1.9922 2.817 0 1.6477 1.3406 2.9882 2.9883 2.9882 1.6477 0 2.9883-1.3405 2.9883-2.9883 0-1.2985-.8329-2.4057-1.9922-2.817V14.8572l7.2854 13.3324h-2.305c-.55 0-.996.4459-.996.996 0 .5502.446.9961.996.9961h2.5439l-3.2326 8.5664zM6.2262 13.3898c-.4807-.2678-1.0874-.095-1.3549.3857-1.4118 2.5352-2.3115 5.2694-2.6838 8.1386H.9961C.446 21.914 0 22.36 0 22.91v3.9844c0 .5502.446.9961.996.9961h3.9845c.5501 0 .996-.446.996-.996v-3.9844c0-.5502-.4459-.9961-.996-.9961H4.196c.3593-2.5248 1.1699-4.9319 2.4158-7.1694.2676-.4806.095-1.0873-.3857-1.355zM3.9844 25.8984H1.9922v-1.9921h1.9922v1.9921zM48.0117 0c-1.2985 0-2.4057.8328-2.817 1.9922H28.4884V.996c0-.5501-.446-.9961-.9961-.9961h-3.9844c-.5501 0-.996.446-.996.996v.9962H5.8051C5.394.8328 4.2868 0 2.9882 0 1.3406 0 0 1.3405 0 2.9883 0 4.636 1.3405 5.9766 2.9883 5.9766c1.2985 0 2.4057-.8329 2.817-1.9922h10.014c-2.1245.889-4.0729 2.043-5.6766 3.395-.4206.3547-.4741.9831-.1195 1.4037a.9938.9938 0 0 0 .762.354.9917.9917 0 0 0 .6415-.2344c2.858-2.4094 6.9366-4.1301 11.085-4.7073v.785c0 .5502.446.9962.9961.9962h3.9844c.5501 0 .996-.446.996-.9961v-.785c4.1485.577 8.2271 2.2978 11.0851 4.707a.9912.9912 0 0 0 .6415.2346.9935.9935 0 0 0 .762-.3541c.3547-.4205.3011-1.049-.1195-1.4035-1.6037-1.352-3.552-2.5061-5.6767-3.3951h10.0142c.4112 1.1593 1.5183 1.9922 2.817 1.9922C49.6594 5.9766 51 4.636 51 2.9883 51 1.3405 49.6595 0 48.0117 0zM2.9883 3.9844c-.5493 0-.9961-.4469-.9961-.9961 0-.5493.4468-.9961.996-.9961.5493 0 .9962.4468.9962.996 0 .5493-.4469.9962-.9961.9962zm23.5078-.9961v.996h-1.9922V1.9923h1.9922v.996zm21.5156.996c-.5492 0-.996-.4468-.996-.996 0-.5493.4468-.9961.996-.9961.5493 0 .9961.4468.9961.996 0 .5493-.4468.9962-.996.9962z" fill="#FFF" fill-rule="nonzero" opacity=".6"/></svg>